<?xml version="1.0" encoding="UTF-8" standalone="no"?>
<!DOCTYPE svg PUBLIC "-//W3C//DTD SVG 1.1//EN" "http://www.w3.org/Graphics/SVG/1.1/DTD/svg11.dtd">
<svg width="100%" height="100%" viewBox="0 0 340 312" version="1.1" xmlns="http://www.w3.org/2000/svg" xmlns:xlink="http://www.w3.org/1999/xlink" xml:space="preserve" xmlns:serif="http://www.serif.com/" style="fill-rule:evenodd;clip-rule:evenodd;stroke-linecap:round;stroke-linejoin:round;stroke-miterlimit:1.5;">
    <g transform="matrix(1,0,0,1,-25380.1,-651.089)">
        <g id="Artboard19" transform="matrix(1,0,0,1,490.706,651.089)">
            <rect x="24889.3" y="0" width="339.639" height="311.011" style="fill:none;"/>
            <g transform="matrix(1,0,0,1,-480.424,-654.827)">
                <path d="M25632.8,702.6C25539.3,718.178 25539,718.396 25532.8,723.63C25530.8,725.251 25523.8,731.092 25537.4,754.941C25545.6,769.266 25569.4,784.349 25581.8,770.83C25583.4,769.116 25594.9,756.59 25584.2,741.856C25564.5,714.792 25471.4,756.053 25503.3,810.553C25517.1,833.979 25529.1,843.587 25517.8,858.687C25513.9,863.96 25508.4,886.625 25505.7,882.988C25491.6,864.295 25483.6,840.221 25482.3,836.256C25485,865.396 25489.1,881.099 25499.6,895.139C25503.4,900.174 25501,907.134 25504.7,902.616C25517.1,887.827 25557.1,872.654 25568.3,863.361C25582.6,851.431 25564.3,863.15 25564.1,863.361C25560.5,866.193 25560,865.517 25558,869.436" style="fill:none;stroke:white;stroke-width:20px;"/>
            </g>
        </g>
    </g>
</svg>
