<?xml version="1.0" encoding="UTF-8" standalone="no"?>
<!DOCTYPE svg PUBLIC "-//W3C//DTD SVG 1.1//EN" "http://www.w3.org/Graphics/SVG/1.1/DTD/svg11.dtd">
<svg width="100%" height="100%" viewBox="0 0 510 332" version="1.1" xmlns="http://www.w3.org/2000/svg" xmlns:xlink="http://www.w3.org/1999/xlink" xml:space="preserve" xmlns:serif="http://www.serif.com/" style="fill:white;">
    <g transform="matrix(1,0,0,1,-2034.11,-140.287)">
        <g id="Artboard2" transform="matrix(0.379673,0,0,0.508014,1445.29,140.287)">
            <rect x="1550.85" y="0" width="1342.52" height="652.7" style="fill:none;"/>
            <g transform="matrix(2.63384,0,0,1.96845,-3806.68,-276.147)">
                <path d="M2119.65,341.357C2116.52,339.319 2114.22,336.03 2113.56,332.063C2112.31,324.551 2117.39,317.435 2124.91,316.182C2127.32,315.781 2126.97,315.387 2154.2,307.606C2159.71,306.031 2165.62,308.027 2169.05,312.62C2172.48,317.214 2172.71,323.448 2169.63,328.284C2166.96,332.481 2163.83,336.55 2160.46,340.428L2162.46,345.099C2162.46,345.113 2162.47,345.128 2162.47,345.143C2165.53,344.42 2167.03,343.797 2167.46,343.623L2172.86,342.561L2178.16,343.645L2182.05,346.122L2184.51,349.06L2186.3,353.501L2186.57,357.395L2185.78,361.056L2184.45,363.774L2181.21,367.331C2170.6,375.819 2169.39,376.899 2168.66,377.995C2164.44,384.332 2155.86,386.047 2149.52,381.822C2145.86,379.381 2143.74,375.487 2143.42,371.411C2143.01,371.071 2142.61,370.706 2142.24,370.316C2140.8,368.825 2139.74,367.053 2139.1,365.141C2133.58,367.867 2125.95,371.764 2116.75,376.779L2115.16,377.572L2111.82,378.523L2106.78,378.359L2103.1,376.973L2100.08,374.734L2096.77,369.598L2095.95,364.326L2096.63,360.567L2097.99,357.647L2101.16,354.07L2102.74,352.983C2103.86,352.301 2111,348.082 2119.65,341.357Z" style="fill:rgb(125,184,229);"/>
            </g>
            <g transform="matrix(2.63384,0,0,1.96845,-3806.68,-276.147)">
                <path d="M2275.87,353.469C2274.89,352.161 2274.13,350.656 2273.66,348.993C2271.56,341.67 2275.81,334.025 2283.13,331.933C2297.57,327.809 2297.01,326.878 2311.75,322.948C2317.85,321.32 2324.28,324.044 2327.36,329.561C2330.43,335.077 2329.37,341.978 2324.78,346.315C2323.45,347.57 2322.22,348.738 2321.07,349.832C2322.97,352.539 2323.86,355.884 2323.48,359.269C2322.59,367.318 2321.05,370.913 2319.21,374.495C2318.19,376.491 2316.88,378.438 2315.42,382.813C2313.01,390.039 2305.19,393.949 2297.97,391.541C2292.9,389.851 2289.46,385.496 2288.69,380.551C2286.76,381.174 2284.55,381.894 2281.94,382.764C2275.56,384.89 2268.58,382.109 2265.41,376.179C2262.23,370.249 2263.8,362.897 2269.11,358.773C2271.68,356.773 2273.91,355.028 2275.87,353.469Z" style="fill:rgb(125,184,229);"/>
            </g>
            <g transform="matrix(2.63384,0,0,1.96845,-3806.68,-276.147)">
                <path d="M2168.8,291.199C2169.47,291.264 2170.12,291.353 2170.77,291.465C2178.47,292.79 2185.89,297.765 2191.68,306.198C2203.82,323.866 2208.97,359.115 2199.18,383.574C2188.84,409.429 2162.59,415.005 2137.9,407.869C2124.77,404.076 2112.44,396.693 2104.38,388.128C2097.59,380.907 2093.7,372.718 2093.14,364.836C2089.13,308.668 2127.03,287.813 2150.45,287.046C2157.78,286.806 2164.13,288.484 2168.8,291.199ZM2168.79,322.247C2166.61,322.68 2164.44,322.572 2162.43,322.017C2157.02,326.258 2149.16,325.886 2144.18,320.902C2143.06,319.787 2142.18,318.528 2141.52,317.184C2129.73,322.733 2118.84,337.241 2120.67,362.87C2120.9,366.064 2123.76,368.822 2126.97,371.579C2131.95,375.852 2138.61,379.345 2145.56,381.355C2156.47,384.507 2168.99,384.747 2173.56,373.324C2179.08,359.523 2177.48,340.645 2172.11,327.811C2171.33,325.952 2170.01,323.924 2168.79,322.247Z"/>
            </g>
            <g transform="matrix(2.63384,0,0,1.96845,-3872.89,-276.147)">
                <path d="M2324.09,305.349C2345.73,302.759 2359.94,310.077 2368.46,320.504C2375.53,329.167 2379.08,340.785 2379.16,353.252C2379.25,370.047 2372.98,388.312 2362.74,401.021C2354.23,411.566 2343.07,418.343 2330.76,419.291C2322.36,419.938 2313.24,417.969 2303.84,411.986C2282.92,398.674 2274.41,382.605 2272.42,367.483C2269.41,344.498 2282.37,322.637 2295.61,311.953C2303.29,305.758 2311.37,303.24 2317.35,303.601L2322.22,304.477L2324.09,305.349ZM2329.49,332.328C2329.01,332.653 2328.5,332.95 2327.96,333.218C2325.02,334.69 2321.8,335.009 2318.81,334.347C2316.15,335.076 2313.31,335.99 2310.29,337.087C2309.8,337.267 2309.3,337.416 2308.8,337.536C2308.48,337.884 2308.18,338.235 2307.89,338.586C2302.14,345.789 2297.53,356.387 2300.45,367.204C2302.5,374.776 2308.25,382.077 2318.66,388.701C2331.84,397.089 2342.24,385.609 2347.55,372.897C2350.57,365.645 2352.09,357.51 2351.39,350.097C2350.87,344.474 2349.17,339.204 2345.02,335.933C2341.26,332.963 2336.15,331.768 2329.49,332.328Z"/>
            </g>
            <g transform="matrix(2.63384,0,0,1.96845,-3819.49,-276.147)">
                <path d="M2251.29,337.385C2250.84,336.302 2248.8,331.647 2246.58,329.172C2244.43,326.785 2241.68,324.534 2238.14,324.28C2231.48,323.803 2224.39,329.14 2215.25,341.318C2210.68,347.411 2202.02,348.648 2195.93,344.078C2189.84,339.508 2188.6,330.851 2193.17,324.758C2207.36,305.837 2220.97,298.695 2232.09,297.059C2250.28,294.379 2264.68,305.503 2272.38,317.705C2278.39,327.23 2279.61,337.307 2278.42,342.062C2276.57,349.451 2269.07,353.95 2261.68,352.103C2254.97,350.424 2250.64,344.075 2251.29,337.385Z"/>
            </g>
            <g transform="matrix(2.63384,0,0,1.96845,-3806.68,-276.147)">
                <path d="M2229.46,250.31C2227.29,250.458 2225.06,250.095 2222.93,249.151C2215.97,246.058 2212.84,237.896 2215.93,230.936L2216.35,230.316C2216.05,229.704 2215.7,229.1 2215.28,228.548C2215.15,228.372 2214.9,228.12 2214.73,227.952C2213.76,228.365 2208.55,230.658 2204.49,234.3C2201.87,236.65 2199.07,239.557 2196.04,243.089C2190.97,249.002 2140.48,307.683 2134.14,318.244C2130.22,324.775 2121.74,326.896 2115.21,322.977C2108.68,319.059 2106.56,310.575 2110.48,304.044C2117.11,292.981 2169.77,231.322 2175.08,225.127C2196.49,200.15 2213.08,198.383 2223.03,201.526C2235.48,205.458 2242.74,219.28 2244.84,228.727C2245.52,231.804 2245.72,234.376 2245.69,235.948L2244.39,242.145L2241.42,246.466L2236.98,249.465L2231.07,250.624L2229.46,250.31ZM2232.19,223.031L2234.77,223.535C2233.89,223.254 2233.03,223.096 2232.19,223.031ZM2228.13,250.05L2225.55,249.546C2226.43,249.827 2227.3,249.985 2228.13,250.05ZM2238.13,246.463C2239.34,245.33 2240.36,243.913 2241.15,242.145C2240.41,243.815 2239.37,245.266 2238.13,246.463Z"/>
            </g>
            <g transform="matrix(2.63384,0,0,1.96845,-3872.89,-276.147)">
                <path d="M2425.51,248.075C2428.21,245.765 2435.63,239.865 2443.24,237.178C2446.18,236.141 2449.16,235.526 2452.03,235.41L2459.22,236.201L2463.03,237.873L2466,240.323C2467.2,241.576 2469.61,244.771 2471.9,249.285C2475.36,256.113 2478.66,266.195 2477.95,275.398C2477.31,283.652 2473.91,291.339 2466.3,297.046C2460.21,301.616 2451.55,300.379 2446.99,294.286C2442.41,288.193 2443.65,279.536 2449.74,274.966C2451.59,273.579 2450.47,271.184 2450.02,269.178C2449.73,267.86 2449.24,266.453 2448.69,265.116C2444.23,267.92 2440.89,271.027 2440.8,271.079C2417.87,284.836 2402.88,310.079 2378.43,344.303C2374.01,350.501 2365.38,351.938 2359.18,347.511C2352.99,343.084 2351.55,334.459 2355.97,328.261C2382.87,290.606 2400.5,263.545 2425.51,248.075Z"/>
            </g>
        </g>
    </g>
</svg>
