<?xml version="1.0" encoding="UTF-8" standalone="no"?>
<!DOCTYPE svg PUBLIC "-//W3C//DTD SVG 1.1//EN" "http://www.w3.org/Graphics/SVG/1.1/DTD/svg11.dtd">
<svg width="100%" height="100%" viewBox="0 0 340 312" version="1.1" xmlns="http://www.w3.org/2000/svg" xmlns:xlink="http://www.w3.org/1999/xlink" xml:space="preserve" xmlns:serif="http://www.serif.com/" style="fill-rule:evenodd;clip-rule:evenodd;stroke-linejoin:round;stroke-miterlimit:2;">
    <g transform="matrix(1,0,0,1,-24890.3,-651.089)">
        <g id="Artboard19" transform="matrix(1,0,0,1,0.905241,651.089)">
            <rect x="24889.3" y="0" width="339.639" height="311.011" style="fill:none;"/>
            <g transform="matrix(3.12129,0,0,3.12129,-53123,-2351.14)">
                <path d="M25026.2,781.439C25026.6,781.216 25027.1,781.034 25027.5,780.889C25030.1,780.031 25033,780.499 25035.8,781.947C25039.6,784.023 25043,788.106 25043.9,792.739C25044.2,794.496 25043.1,797.417 25041.2,799.906C25039.4,802.361 25036.8,804.348 25034.4,804.583C25028.3,805.197 25024.1,803.443 25021.6,800.771C25017.8,796.679 25017.7,790.281 25020.3,785.975C25021.6,783.687 25023.6,781.98 25026.2,781.439ZM25030.6,783.136C25030.4,783.746 25029.8,784.135 25029.1,784.026C25028.4,783.907 25027.8,783.905 25027.1,784.002C25025.6,784.964 25024.4,786.753 25023.7,789.509C25023.6,790.224 25022.8,790.659 25022.1,790.48C25021.9,790.415 25021.6,790.277 25021.5,790.093C25020.8,793.089 25021.3,796.53 25023.6,798.946C25025.7,801.145 25029.1,802.431 25034.1,801.926C25035.9,801.752 25037.7,800.115 25039.1,798.291C25040,797.137 25040.7,795.882 25041,794.765C25041.2,794.181 25041.3,793.651 25041.2,793.225C25040.5,789.387 25037.7,786.021 25034.5,784.302C25033.2,783.631 25031.9,783.207 25030.6,783.136Z" style="fill:rgb(1,1,1);"/>
            </g>
            <g transform="matrix(3.12129,0,0,3.12129,-53123,-2351.14)">
                <path d="M25057.6,779.041C25059.2,777.427 25061,776.463 25062.8,776.024C25068,774.761 25073.5,777.875 25075.7,783.089C25078.6,790.141 25077.7,802.588 25065.9,801.682C25057.1,801.007 25052.1,795.616 25051.5,790.112C25051,786.011 25052.9,781.692 25057.6,779.041ZM25065.3,778.411C25065.2,778.973 25064.8,779.449 25064.2,779.556C25062.3,779.908 25060.6,780.481 25059.3,781.216C25058.2,782.373 25057.3,783.911 25056.5,785.868C25056.3,786.556 25055.5,786.899 25054.8,786.635C25054.7,786.593 25054.6,786.54 25054.5,786.476C25054.1,787.555 25054,788.684 25054.2,789.81C25054.7,794.305 25058.9,798.469 25066.1,799.02C25075.3,799.732 25075.6,789.66 25073.2,784.116C25071.8,780.754 25068.7,778.464 25065.3,778.411Z" style="fill:rgb(1,1,1);"/>
            </g>
            <g transform="matrix(3.12129,0,0,3.12129,-53123,-2351.14)">
                <path d="M25051.6,782.762C25051.5,782.633 25051.3,782.314 25051.1,782.134C25050.4,781.501 25049.2,781.039 25047.8,781.137C25046.5,781.229 25045.3,781.969 25044.3,782.81C25042.6,784.226 25041.4,785.999 25041.2,786.353C25040.8,786.966 25040,787.131 25039.3,786.723C25038.7,786.314 25038.6,785.485 25039,784.872C25039.2,784.461 25040.6,782.408 25042.6,780.764C25044,779.565 25045.7,778.606 25047.6,778.474C25050.8,778.246 25053.3,780.051 25054,781.625C25054.2,782.127 25054.3,782.626 25054.2,783.086L25054.2,783.484L25054,783.871L25053.8,784.229L25053.5,784.546C25053,785.067 25052.2,785.067 25051.6,784.546C25051.2,784.058 25051.1,783.286 25051.6,782.762Z" style="fill:rgb(1,1,1);"/>
            </g>
            <g transform="matrix(3.12129,0,0,3.12129,-53123,-2351.14)">
                <path d="M25009.3,793.068C25009.4,793.076 25010.4,793.139 25011.4,793.129C25014.4,793.097 25019.1,792.804 25019.7,792.766C25020.4,792.72 25021,793.28 25021.1,794.015C25021.1,794.75 25020.6,795.385 25019.8,795.431C25019.1,795.475 25013,795.856 25010.2,795.795C25009.2,795.774 25008.5,795.632 25008.2,795.516C25007.6,795.186 25007.3,794.384 25007.6,793.725C25007.9,793.111 25008.7,792.837 25009.3,793.068Z" style="fill:rgb(1,1,1);"/>
            </g>
            <g transform="matrix(3.12129,0,0,3.12129,-53123,-2351.14)">
                <path d="M25078.4,789.349C25078,789.924 25077.1,790.018 25076.5,789.558C25076,789.097 25075.9,788.257 25076.3,787.681C25076.8,787.128 25079.2,784.164 25082,781.735C25084,779.986 25086.3,778.55 25088.4,778.261C25089.1,778.157 25089.8,778.664 25089.9,779.394C25090,780.123 25089.5,780.8 25088.7,780.904C25087.1,781.134 25085.4,782.373 25083.7,783.764C25081.1,786.044 25078.8,788.83 25078.4,789.349Z" style="fill:rgb(1,1,1);"/>
            </g>
            <g transform="matrix(3.12129,0,0,3.12129,-53123,-2351.14)">
                <path d="M25055.5,791.652L25056,792.238C25056,792.238 25056.7,792.731 25056.7,792.731L25057.3,792.856C25057.3,793.553 25057.6,794.219 25058.1,794.701L25058.1,794.928C25057.7,796.254 25058.4,797.65 25059.7,798.15C25060.5,798.481 25061.4,798.346 25062.1,797.858L25062.6,798.571C25062.6,798.571 25063.6,799.197 25063.6,799.197C25063.6,799.197 25064.7,799.364 25064.7,799.364C25064.7,799.364 25065.8,799.063 25065.8,799.063C25065.8,799.063 25066.6,798.41 25066.6,798.41C25066.7,798.234 25067,797.824 25067.4,797.181C25067.8,797.249 25068.2,797.213 25068.6,797.085L25068.9,797.205L25069.2,797.776C25069.2,797.776 25069.7,798.337 25069.7,798.337C25069.7,798.337 25070.6,798.859 25070.6,798.859C25070.6,798.859 25071.2,798.992 25071.2,798.992C25071.2,798.992 25071.8,798.983 25071.8,798.983C25071.8,798.983 25072.5,798.792 25072.5,798.792C25072.5,798.792 25073.2,798.386 25073.2,798.386C25073.2,798.386 25073.7,797.767 25073.7,797.767C25073.7,797.767 25074.1,797.046 25074.1,797.046C25074.1,796.976 25075,794.009 25075,793.343C25075,793.343 25074.9,792.494 25074.9,792.494L25074.5,791.686L25074.6,791.144C25074.8,790.226 25074.6,789.288 25073.9,788.648C25074,788.484 25074,788.374 25074,788.334C25074,788.334 25073.9,787.151 25073.9,787.151C25073.9,787.151 25073.7,786.584 25073.7,786.584C25073.7,786.584 25073.4,786.05 25073.4,786.05C25073.4,786.05 25072.9,785.599 25072.9,785.599C25072.9,785.599 25072.1,785.252 25072.1,785.252L25071.7,785.172C25071.5,784.898 25071.3,784.653 25071,784.449C25071.3,783.185 25070.7,781.876 25069.5,781.366C25068.8,781.075 25068,781.095 25067.4,781.368C25067.1,780.897 25066.7,780.506 25066.2,780.269C25065.9,780.133 25065.6,780.059 25065.2,780.043C25065.1,779.961 25065,779.889 25064.9,779.827C25064.4,779.634 25064,779.563 25063.5,779.603C25063.4,779.421 25063.2,779.26 25063,779.123C25061.7,778.326 25060.1,778.686 25059.3,779.925C25057.5,782.624 25055.3,785.515 25054.4,786.82C25053.9,787.445 25053.7,787.91 25053.6,788.101C25053.6,788.101 25053.5,789.28 25053.5,789.28C25053.5,789.28 25053.6,790.001 25053.6,790.001C25053.6,790.001 25053.9,790.593 25053.9,790.593C25053.9,790.593 25054.5,791.205 25054.5,791.205C25054.5,791.205 25055.2,791.595 25055.2,791.595L25055.5,791.652Z" style="fill:rgb(120,236,231);fill-opacity:0.45;"/>
            </g>
            <g transform="matrix(3.12129,0,0,3.12129,-53123,-2351.14)">
                <path d="M25030.8,782.392C25031.4,782.193 25032.2,782.237 25032.8,782.558C25033.8,783.07 25034.4,784.157 25034.3,785.254C25034.4,785.283 25034.5,785.321 25034.6,785.367C25035.2,785.599 25035.6,786.012 25035.9,786.519C25036.3,786.498 25036.7,786.564 25037.1,786.728C25037.5,786.887 25037.8,787.123 25038.1,787.408C25038.4,787.406 25038.7,787.457 25039,787.564C25040.2,787.999 25040.9,789.243 25040.7,790.511C25041.5,791.214 25041.9,792.375 25041.5,793.447C25041.1,794.553 25041.1,794.472 25038.9,799.031C25038.4,800.165 25037.2,800.764 25036,800.505C25035.9,800.615 25035.8,800.726 25035.8,800.839C25035.2,801.993 25033.9,802.584 25032.7,802.266C25032.1,802.797 25031.2,803.008 25030.3,802.771C25029.7,802.592 25029.1,802.185 25028.8,801.655C25028.2,802.784 25026.8,803.309 25025.6,802.863C25024.2,802.389 25023.5,800.979 25023.9,799.631C25024.1,798.818 25024.3,798.091 25024.5,797.432L25024.4,797.454L25023.4,797.238L25022.5,796.63L25021.8,795.739L25021.6,795.044L25021.4,794.269L25021.4,793.485C25021.4,793.207 25021.5,792.869 25021.6,792.44C25022,791.169 25023,788.529 25025.8,782.104C25026.4,780.749 25027.9,780.121 25029.3,780.702C25030.1,781.026 25030.6,781.66 25030.8,782.392Z" style="fill:rgb(120,236,231);fill-opacity:0.45;"/>
            </g>
            <g transform="matrix(3.12129,0,0,3.12129,-53123,-2351.14)">
                <path d="M25056.6,820.727C25056.7,821.449 25056.3,822.153 25055.5,822.297C25054.8,822.442 25054.1,821.973 25054,821.25C25053.9,820.936 25053.8,820.148 25054.2,819.278C25054.7,818.356 25056,817.034 25060,816.797C25061.3,816.721 25062.6,817.05 25063.9,817.643C25065.6,818.426 25067.3,819.679 25069,820.876C25070.2,821.775 25071.4,822.642 25072.5,823.175C25073.3,823.557 25074.1,823.796 25074.8,823.508C25075.9,823.024 25076.7,822.385 25077.1,821.645C25077.7,820.52 25077.6,819.221 25077.3,818.125C25077,816.742 25076.4,815.638 25076.3,815.384C25075.9,814.74 25076.1,813.926 25076.8,813.568C25077.4,813.211 25078.2,813.443 25078.6,814.087C25079.1,814.941 25083.3,822.863 25075.8,825.972C25074.9,826.354 25073.9,826.388 25072.9,826.139C25071.7,825.84 25070.3,825.095 25069,824.157C25067.5,823.125 25065.9,821.859 25064.3,820.877C25062.9,820.035 25061.5,819.381 25060.2,819.462C25058.8,819.544 25057.9,819.744 25057.2,820.023C25056.9,820.169 25056.7,820.307 25056.6,820.474C25056.5,820.584 25056.6,820.687 25056.6,820.727Z"/>
            </g>
            <g transform="matrix(3.12129,0,0,3.12129,-53123,-2351.14)">
                <path d="M25046.3,821.168C25047,821.426 25047.3,822.196 25047,822.886C25046.8,823.576 25046,823.926 25045.3,823.667C25043,822.791 25041.5,822.656 25040.5,823.086C25039.4,823.501 25038.9,824.408 25038.2,825.333C25037,827.084 25035.7,828.949 25033,829.77C25028.5,831.106 25025.4,828.984 25023.2,827.434C25022.3,826.776 25021.6,826.174 25021.2,825.259C25021,824.663 25021,823.917 25021.2,822.903C25021.5,821.798 25022.2,820.244 25023.6,817.97C25024,817.341 25024.8,817.143 25025.4,817.527C25026,817.911 25026.2,818.733 25025.9,819.362C25024.9,821.003 25024.2,822.2 25023.9,823.109C25023.7,823.683 25023.6,824.063 25023.8,824.359C25023.8,824.531 25024,824.641 25024.1,824.762C25024.3,824.93 25024.5,825.089 25024.8,825.262C25026.4,826.449 25028.8,828.236 25032.2,827.213C25033.7,826.772 25034.5,825.868 25035.2,824.924C25035.8,824.147 25036.3,823.338 25036.9,822.635C25037.6,821.763 25038.4,821.043 25039.5,820.612C25040.9,820.013 25043,819.946 25046.3,821.168Z"/>
            </g>
        </g>
    </g>
</svg>
