<?xml version="1.0" encoding="UTF-8" standalone="no"?>
<!DOCTYPE svg PUBLIC "-//W3C//DTD SVG 1.1//EN" "http://www.w3.org/Graphics/SVG/1.1/DTD/svg11.dtd">
<svg width="100%" height="100%" viewBox="0 0 1375 693" version="1.1" xmlns="http://www.w3.org/2000/svg" xmlns:xlink="http://www.w3.org/1999/xlink" xml:space="preserve" xmlns:serif="http://www.serif.com/" style="fill:white;">
    <g transform="matrix(1,0,0,1,-17401,-230.805)">
        <g id="Artboard12" transform="matrix(1,0,0,0.575998,-0.0728763,230.805)">
            <rect x="17401.1" y="0" width="1374.74" height="1202.11" style="fill:none;"/>
            <g transform="matrix(2.79222,0,0,4.84762,-28314.7,-411.222)">
                <g transform="matrix(1,0,0,1,-135.333,-132.328)">
                    <path d="M16553.4,419.858C16560.6,395.534 16565.9,366.218 16567.6,358.078C16577.7,307.36 16582.4,299.409 16586,279.73C16586.7,275.768 16590.5,273.137 16594.5,273.857C16598.5,274.578 16601.1,278.378 16600.4,282.34C16596.8,302.081 16592.1,310.061 16581.9,360.939C16580,370.241 16573.4,406.5 16564.7,432.596C16563.5,436.314 16559.5,438.389 16555.8,437.293C16552,436.197 16549.8,432.322 16550.7,428.519L16552.3,422.365C16552.5,421.434 16552.9,420.591 16553.4,419.858Z"/>
                </g>
                <g transform="matrix(1,0,0,1,-135.333,-132.328)">
                    <path d="M16614.8,424.532C16631.8,373.08 16621.6,364.253 16654,272.452C16655.4,268.655 16659.5,266.661 16663.3,268.001C16667.1,269.341 16669.1,273.511 16667.8,277.308C16633.2,375.341 16647.1,378.826 16624.7,440.475C16623.6,443.358 16620.9,445.277 16617.8,445.277L16611.3,441.245L16608.2,435.09C16606.4,431.489 16607.9,427.103 16611.5,425.303C16612.5,424.773 16613.7,424.526 16614.8,424.532Z"/>
                </g>
                <g transform="matrix(1,0,0,1,-130.717,-164.641)">
                    <path d="M16641.2,402.36C16641.2,402.006 16641.2,401.652 16641.3,401.301C16643.4,383.163 16663.2,367.416 16681.2,364.602C16689.8,363.253 16697.9,364.799 16703.8,369.414C16707.9,372.65 16711.2,377.403 16712.6,384.084C16714.4,391.917 16713.1,398.224 16709.9,403.278C16705.6,410.09 16697.1,414.803 16685.9,417.039C16679,418.418 16671,418.903 16662.4,418.701C16665.2,421.514 16669,424.296 16673.7,427.032C16684.6,433.249 16700.5,430.52 16714.2,424.286C16727.7,418.129 16739.6,408.467 16741.4,398.21C16742,394.841 16747.6,367.754 16753.3,339.114C16754.8,316.962 16757.5,298.4 16758.4,294.652C16763.1,275.963 16765.7,267.265 16766.6,265.553L16768.1,263.579L16770.4,261.943L16772.9,261.35L16775,261.523L16776.9,262.265L16778.4,263.309L16780.2,265.963L16780.8,268.891C16780.8,269.823 16780.6,271.854 16780.2,274.776C16778.6,286.095 16773.1,314.425 16767.7,341.401C16766.7,357.284 16766.3,374.995 16767.7,390.012C16768.5,398.544 16769.8,406.164 16772.1,411.906C16773.2,414.729 16774.5,417.043 16776.2,418.438C16778.7,420.416 16780.9,421.535 16783,421.343C16786.5,421.016 16789.2,417.603 16791.9,413.142C16794.8,408.227 16797.5,401.953 16799.7,394.834C16798,378.892 16798.4,355.586 16802.9,321.615C16805.3,303.773 16807.4,292.801 16809,287.152C16810.1,283.118 16811.5,280.877 16812.4,279.903L16814.9,278.047L16817.9,277.275L16819.6,277.378L16821.2,277.841L16822.8,278.687L16824.3,280.064L16825.5,281.86L16826.3,283.915C16826.7,285.52 16827.1,288.162 16827.4,291.669C16828.5,310.765 16824.8,360.825 16814.5,395.835C16815,399.028 16815.5,401.864 16816.2,404.38C16818.2,412.43 16820.8,416.479 16824,418.088C16826.5,419.37 16828.9,418.757 16830.4,418.495C16838.8,416.966 16845.6,411.095 16851,403.761C16851.8,396.589 16854,386.57 16858.6,372.589C16862,362.498 16864.7,356.405 16866.6,353.33C16867.4,352.047 16868.1,351.113 16868.7,350.458L16871.3,348.478L16873.8,347.673L16876,347.64L16877.9,348.121L16879.5,349.002L16880.8,350.308C16881.4,349.81 16882,349.407 16882.5,349.124L16885.3,347.815C16897.7,344.725 16906.3,347.333 16911.9,352.36C16913.3,353.563 16914.4,354.935 16915.5,356.452C16917.9,355.198 16920.9,353.897 16924.8,352.588C16941.4,347.051 16940.2,345.103 16957.4,340.185C16961.3,339.079 16965.3,341.324 16966.4,345.195C16967.5,349.066 16965.3,353.107 16961.4,354.213C16944.5,359.042 16945.7,360.993 16929.4,366.429C16925.2,367.842 16922.3,369.258 16920,370.584C16920.1,371.937 16920.2,373.325 16920.1,374.744C16919.8,386.614 16914.4,400.738 16904.9,411.456C16895.2,422.534 16881.3,429.963 16864.8,428.315C16862.7,428.099 16859.3,427.525 16856.2,424.78C16855.4,424.08 16854.6,423.208 16853.9,422.097C16847.8,427.526 16840.8,431.427 16833,432.85C16829.5,433.493 16823.5,434.22 16817.3,431.071C16813.4,429.063 16809.1,425.378 16805.7,418.328C16805.6,418.455 16805.6,418.581 16805.5,418.706C16799.9,428.805 16792.8,434.722 16785.2,435.771C16779.7,436.528 16773.6,435.015 16767.1,429.83C16763.7,427.089 16760.8,422.85 16758.6,417.304C16757.1,413.547 16755.9,409.121 16754.9,404.207C16750.8,417.033 16737.1,429.891 16720.2,437.561C16702.1,445.831 16680.9,447.948 16666.5,439.7C16654.3,432.726 16647.3,424.998 16643.8,417.335C16626.2,415.259 16608.5,411.117 16595.2,406.453C16583,402.146 16574.4,396.846 16571.7,392.79C16569.5,389.44 16570.4,384.907 16573.8,382.674C16577.1,380.441 16581.6,381.347 16583.9,384.697C16584.4,385.487 16585.6,386.148 16587,387.004C16589.4,388.408 16592.5,389.825 16596.1,391.227C16607.7,395.771 16624.4,400.031 16641.2,402.36ZM16905.3,377.74C16903,378.294 16900.3,378.748 16897,379.077C16888.7,379.907 16883,379.549 16879.2,378.668C16876.6,387.231 16872.7,396.843 16867.4,405.526C16866.7,406.632 16866,407.722 16865.3,408.792C16865.3,409.235 16865.3,409.661 16865.3,410.07C16865.4,411.58 16865.8,413.139 16866,413.765C16866.1,413.779 16866.2,413.792 16866.3,413.798C16877.7,414.941 16887.2,409.499 16894,401.813C16900.2,394.775 16904.2,385.833 16905.3,377.74ZM16886.9,364.753C16889.3,364.869 16892.4,364.883 16895.6,364.559C16898.4,364.278 16900.6,363.874 16902.3,363.371C16902.3,363.318 16902.2,363.266 16902.2,363.214C16899.6,360.891 16895.6,360.487 16890.1,361.685L16886.9,364.753ZM16655.7,403.859C16659.9,404.134 16664,404.25 16668,404.181C16676.5,404.033 16684.1,403.062 16690,400.771C16693.3,399.489 16696,397.873 16697.6,395.462C16698.9,393.311 16699.1,390.584 16698.4,387.249C16696,376.339 16684.3,377.29 16674.5,381.791C16665.1,386.111 16656.2,394.265 16655.7,403.859Z"/>
                </g>
            </g>
        </g>
    </g>
</svg>
